<svg version="1.1" xmlns="http://www.w3.org/2000/svg" xmlns:xlink="http://www.w3.org/1999/xlink" width="24" height="24" viewBox="0,0,256,256"><g fill="#694d75" fill-rule="nonzero" stroke="none" stroke-width="1" stroke-linecap="butt" stroke-linejoin="miter" stroke-miterlimit="10" stroke-dasharray="" stroke-dashoffset="0" font-family="none" font-weight="none" font-size="none" text-anchor="none" style="mix-blend-mode: normal"><g transform="translate(0,256) scale(0.26667,0.26667)"><path d="M240,-80c-22,0 -40.83333,-7.83333 -56.5,-23.5c-15.66667,-15.66667 -23.5,-34.5 -23.5,-56.5v-480c0,-22 7.83333,-40.83333 23.5,-56.5c15.66667,-15.66667 34.5,-23.5 56.5,-23.5h80c0,-44 15.66667,-81.66667 47,-113c31.33333,-31.33333 69,-47 113,-47c44,0 81.66667,15.66667 113,47c31.33333,31.33333 47,69 47,113h80c22,0 40.83333,7.83333 56.5,23.5c15.66667,15.66667 23.5,34.5 23.5,56.5v480c0,22 -7.83333,40.83333 -23.5,56.5c-15.66667,15.66667 -34.5,23.5 -56.5,23.5zM240,-160h480v-480h-80v80c0,11.33333 -3.83333,20.83333 -11.5,28.5c-7.66667,7.66667 -17.16667,11.5 -28.5,11.5c-11.33333,0 -20.83333,-3.83333 -28.5,-11.5c-7.66667,-7.66667 -11.5,-17.16667 -11.5,-28.5v-80h-160v80c0,11.33333 -3.83333,20.83333 -11.5,28.5c-7.66667,7.66667 -17.16667,11.5 -28.5,11.5c-11.33333,0 -20.83333,-3.83333 -28.5,-11.5c-7.66667,-7.66667 -11.5,-17.16667 -11.5,-28.5v-80h-80zM400,-720h160c0,-22 -7.83333,-40.83333 -23.5,-56.5c-15.66667,-15.66667 -34.5,-23.5 -56.5,-23.5c-22,0 -40.83333,7.83333 -56.5,23.5c-15.66667,15.66667 -23.5,34.5 -23.5,56.5zM240,-160v-480z"></path></g></g></svg>